<?xml version="1.0" encoding="UTF-8"?>
<svg xmlns="http://www.w3.org/2000/svg" xmlns:xlink="http://www.w3.org/1999/xlink" width="841.89pt" height="595.276pt" viewBox="0 0 841.89 595.276">
<defs>
<g>
<g id="glyph-0-0">
<path d="M 0 -11.46875 L 0 -9.796875 L -4.8125 -8.265625 L -4.8125 -3.75 L 0 -2.21875 L 0 -0.5625 L -13.75 -5.046875 L -13.75 -6.96875 Z M -6.21875 -7.8125 L -11.90625 -6 L -6.21875 -4.21875 Z M -6.21875 -7.8125 "/>
</g>
<g id="glyph-0-1">
<path d="M 0 -9.984375 L 0 -2.5 L -13.75 -2.5 L -13.75 -4.09375 L -1.390625 -4.09375 L -1.390625 -9.984375 Z M 0 -9.984375 "/>
</g>
<g id="glyph-0-2">
<path d="M -7.546875 -7.640625 C -7.328125 -8.554688 -6.910156 -9.273438 -6.296875 -9.796875 C -5.679688 -10.316406 -4.945312 -10.578125 -4.09375 -10.578125 C -2.84375 -10.578125 -1.847656 -10.125 -1.109375 -9.21875 C -0.367188 -8.3125 0 -7.222656 0 -5.953125 L 0 -2.03125 L -13.75 -2.03125 L -13.75 -5.84375 C -13.75 -7.175781 -13.457031 -8.210938 -12.875 -8.953125 C -12.300781 -9.703125 -11.484375 -10.078125 -10.421875 -10.078125 C -9.773438 -10.078125 -9.195312 -9.859375 -8.6875 -9.421875 C -8.175781 -8.992188 -7.804688 -8.398438 -7.578125 -7.640625 Z M -8.28125 -3.640625 L -8.28125 -5.515625 C -8.28125 -7.460938 -8.984375 -8.4375 -10.390625 -8.4375 C -11.023438 -8.4375 -11.507812 -8.195312 -11.84375 -7.71875 C -12.1875 -7.238281 -12.359375 -6.535156 -12.359375 -5.609375 L -12.359375 -3.640625 Z M -1.390625 -3.640625 L -1.390625 -5.453125 C -1.390625 -6.515625 -1.628906 -7.351562 -2.109375 -7.96875 C -2.597656 -8.59375 -3.257812 -8.90625 -4.09375 -8.90625 C -4.988281 -8.90625 -5.675781 -8.597656 -6.15625 -7.984375 C -6.644531 -7.367188 -6.890625 -6.484375 -6.890625 -5.328125 L -6.890625 -3.640625 Z M -1.390625 -3.640625 "/>
</g>
<g id="glyph-0-3">
<path d="M -4.328125 -9.953125 C -2.734375 -9.953125 -1.566406 -9.625 -0.828125 -8.96875 C -0.0976562 -8.320312 0.265625 -7.34375 0.265625 -6.03125 C 0.265625 -3.363281 -1.253906 -2.03125 -4.296875 -2.03125 L -13.75 -2.03125 L -13.75 -3.640625 L -4.4375 -3.640625 C -2.238281 -3.640625 -1.140625 -4.4375 -1.140625 -6.03125 C -1.140625 -6.820312 -1.398438 -7.40625 -1.921875 -7.78125 C -2.441406 -8.15625 -3.285156 -8.34375 -4.453125 -8.34375 L -13.75 -8.34375 L -13.75 -9.953125 Z M -4.328125 -9.953125 "/>
</g>
<g id="glyph-0-4">
<path d="M 0 -10.421875 L 0 -8.875 L -11.796875 -8.875 L -6.15625 -6.8125 L -6.15625 -5.296875 L -11.796875 -3.21875 L 0 -3.21875 L 0 -1.671875 L -13.75 -1.671875 L -13.75 -3.75 L -7.484375 -6.0625 L -13.75 -8.34375 L -13.75 -10.421875 Z M 0 -10.421875 "/>
</g>
<g id="glyph-0-5">
</g>
<g id="glyph-0-6">
<path d="M -0.859375 -10.4375 C -0.109375 -9.363281 0.265625 -8.113281 0.265625 -6.6875 C 0.265625 -4.90625 -0.34375 -3.550781 -1.5625 -2.625 C -2.789062 -1.695312 -4.5625 -1.234375 -6.875 -1.234375 C -9.113281 -1.234375 -10.863281 -1.679688 -12.125 -2.578125 C -13.382812 -3.472656 -14.015625 -4.84375 -14.015625 -6.6875 C -14.015625 -7.351562 -13.929688 -8.007812 -13.765625 -8.65625 C -13.597656 -9.3125 -13.375 -9.835938 -13.09375 -10.234375 L -11.84375 -9.703125 C -12.351562 -8.785156 -12.609375 -7.78125 -12.609375 -6.6875 C -12.609375 -5.414062 -12.148438 -4.472656 -11.234375 -3.859375 C -10.316406 -3.242188 -8.863281 -2.9375 -6.875 -2.9375 C -3.050781 -2.9375 -1.140625 -4.1875 -1.140625 -6.6875 C -1.140625 -7.75 -1.460938 -8.835938 -2.109375 -9.953125 Z M -0.859375 -10.4375 "/>
</g>
<g id="glyph-0-7">
<path d="M -14.015625 -5.96875 C -14.015625 -7.507812 -13.40625 -8.679688 -12.1875 -9.484375 C -10.96875 -10.296875 -9.195312 -10.703125 -6.875 -10.703125 C -4.5625 -10.703125 -2.789062 -10.296875 -1.5625 -9.484375 C -0.34375 -8.679688 0.265625 -7.507812 0.265625 -5.96875 C 0.265625 -4.4375 -0.34375 -3.265625 -1.5625 -2.453125 C -2.78125 -1.640625 -4.550781 -1.234375 -6.875 -1.234375 C -9.195312 -1.234375 -10.96875 -1.632812 -12.1875 -2.4375 C -13.40625 -3.25 -14.015625 -4.425781 -14.015625 -5.96875 Z M -1.140625 -5.96875 C -1.140625 -8 -3.050781 -9.015625 -6.875 -9.015625 C -10.695312 -9.015625 -12.609375 -8 -12.609375 -5.96875 C -12.609375 -4.976562 -12.113281 -4.222656 -11.125 -3.703125 C -10.132812 -3.191406 -8.71875 -2.9375 -6.875 -2.9375 C -5.007812 -2.9375 -3.585938 -3.191406 -2.609375 -3.703125 C -1.628906 -4.210938 -1.140625 -4.96875 -1.140625 -5.96875 Z M -1.140625 -5.96875 "/>
</g>
<g id="glyph-0-8">
<path d="M -13.75 -11.421875 L 0 -6.9375 L 0 -5.015625 L -13.75 -0.515625 L -13.75 -2.1875 L -1.859375 -5.96875 L -13.75 -9.765625 Z M -13.75 -11.421875 "/>
</g>
<g id="glyph-0-9">
<path d="M 0 -9.6875 L 0 -2.5 L -13.75 -2.5 L -13.75 -9.625 L -12.359375 -9.625 L -12.359375 -4.09375 L -8.109375 -4.09375 L -8.109375 -9.40625 L -6.703125 -9.40625 L -6.703125 -4.09375 L -1.390625 -4.09375 L -1.390625 -9.6875 Z M 0 -9.6875 "/>
</g>
<g id="glyph-0-10">
<path d="M 0 -11.453125 L 0 -9.453125 L -6.25 -5.40625 L -6.25 -3.640625 L 0 -3.640625 L 0 -2.03125 L -13.75 -2.03125 L -13.75 -5.921875 C -13.75 -7.234375 -13.429688 -8.265625 -12.796875 -9.015625 C -12.171875 -9.773438 -11.289062 -10.15625 -10.15625 -10.15625 C -9.320312 -10.15625 -8.578125 -9.878906 -7.921875 -9.328125 C -7.265625 -8.773438 -6.820312 -8.015625 -6.59375 -7.046875 Z M -7.640625 -3.640625 L -7.640625 -5.65625 C -7.640625 -6.5 -7.867188 -7.179688 -8.328125 -7.703125 C -8.785156 -8.234375 -9.363281 -8.5 -10.0625 -8.5 C -11.59375 -8.5 -12.359375 -7.5625 -12.359375 -5.6875 L -12.359375 -3.640625 Z M -7.640625 -3.640625 "/>
</g>
</g>
<clipPath id="clip-0">
<path clip-rule="nonzero" d="M 0.457031 0 L 841.324219 0 L 841.324219 594.554688 L 0.457031 594.554688 Z M 0.457031 0 "/>
</clipPath>
<clipPath id="clip-1">
<path clip-rule="nonzero" d="M 0.457031 0.5 L 633 0.5 L 633 594.554688 L 0.457031 594.554688 Z M 0.457031 0.5 "/>
</clipPath>
</defs>
<g clip-path="url(#clip-0)">
<path fill-rule="nonzero" fill="rgb(0%, 0%, 100%)" fill-opacity="1" d="M 0.457031 594.554688 L 841.324219 594.554688 L 841.324219 0 L 0.457031 0 Z M 0.457031 594.554688 "/>
</g>
<g clip-path="url(#clip-1)">
<path fill="none" stroke-width="2.5" stroke-linecap="butt" stroke-linejoin="miter" stroke="rgb(100%, 100%, 100%)" stroke-opacity="1" stroke-miterlimit="4" d="M -0.000574999 0.000908871 C -0.000574999 47.425706 6.194451 90.517115 18.584502 129.255579 C 30.96282 167.982311 48.347219 201.049824 70.761165 228.458118 C 93.147735 255.85468 119.769918 277.083593 150.592516 292.101837 C 181.430759 307.12008 215.54642 314.625291 252.962966 314.625291 C 289.859349 314.625291 323.849858 307.12008 354.946227 292.101837 C 386.034774 277.083593 412.656957 255.85468 434.793222 228.458118 C 456.929488 201.049824 474.180913 167.982311 486.570964 129.255579 C 498.945371 90.517115 505.140396 47.425706 505.140396 0.000908871 C 505.140396 -47.4278 498.945371 -90.515297 486.570964 -129.257672 C 474.180913 -167.980493 456.929488 -201.188802 434.793222 -228.859134 C 412.656957 -256.529465 386.034774 -277.867886 354.946227 -292.88613 C 323.849858 -307.908285 289.859349 -315.421318 252.962966 -315.421318 C 215.54642 -315.421318 181.430759 -307.908285 150.592516 -292.88613 C 119.769918 -277.867886 93.147735 -256.529465 70.761165 -228.859134 C 48.347219 -201.188802 30.96282 -167.980493 18.584502 -129.257672 C 6.194451 -90.515297 -0.000574999 -47.4278 -0.000574999 0.000908871 Z M 153.361505 0.000908871 C 153.361505 -26.363149 155.727661 -50.329762 160.479527 -71.930221 C 165.227482 -93.558056 171.946582 -112.25264 180.632915 -128.056995 C 189.334892 -143.876994 199.726421 -156.126249 211.870079 -164.828226 C 223.982449 -173.514559 237.682686 -177.867503 252.962966 -177.867503 C 267.719173 -177.867503 281.294257 -173.514559 293.684308 -164.828226 C 306.062626 -156.126249 316.4698 -143.876994 324.90974 -128.056995 C 333.334036 -112.25264 339.927983 -93.558056 344.675939 -71.930221 C 349.412161 -50.329762 351.782227 -26.363149 351.782227 0.000908871 C 351.782227 25.813515 349.412161 49.670621 344.675939 71.544849 C 339.927983 93.407344 333.334036 112.117573 324.90974 127.671624 C 316.4698 143.213942 306.062626 155.345867 293.684308 164.028289 C 281.294257 172.730266 267.719173 177.079299 252.962966 177.079299 C 237.682686 177.079299 223.982449 172.730266 211.870079 164.028289 C 199.726421 155.345867 189.334892 143.213942 180.632915 127.671624 C 171.946582 112.117573 165.227482 93.407344 160.479527 71.544849 C 155.727661 49.670621 153.361505 25.813515 153.361505 0.000908871 Z M 390.223456 166.034632 L 303.375768 166.034632 L 303.375768 297.088363 L 544.966119 297.088363 L 544.966119 -298.189447 L 390.223456 -298.189447 Z M 567.102384 -241.472112 C 567.102384 -233.712686 568.553366 -226.367826 571.467061 -219.414066 C 574.372935 -212.475951 578.412999 -206.413899 583.587253 -201.239645 C 588.745864 -196.073213 594.807915 -192.029238 601.761675 -189.127275 C 608.711523 -186.213579 616.060294 -184.762598 623.81972 -184.762598 C 631.567413 -184.762598 638.920095 -186.213579 645.869943 -189.127275 C 652.815881 -192.029238 658.877933 -196.073213 664.052187 -201.239645 C 669.218619 -206.413899 673.258683 -212.475951 676.164557 -219.414066 C 679.074342 -226.367826 680.529234 -233.712686 680.529234 -241.472112 C 680.529234 -249.227627 679.074342 -256.580308 676.164557 -263.526246 C 673.258683 -270.483917 669.218619 -276.534235 664.052187 -281.700667 C 658.877933 -286.874922 652.815881 -290.911075 645.869943 -293.82477 C 638.920095 -296.726733 631.567413 -298.189447 623.81972 -298.189447 C 616.060294 -298.189447 608.711523 -296.726733 601.761675 -293.82477 C 594.807915 -290.911075 588.745864 -286.874922 583.587253 -281.700667 C 578.412999 -276.534235 574.372935 -270.483917 571.467061 -263.526246 C 568.553366 -256.580308 567.102384 -249.227627 567.102384 -241.472112 Z M 567.102384 -241.472112 " transform="matrix(0.998785, 0, 0, -0.998785, -60.933019, 297.379814)"/>
</g>
<g fill="rgb(100%, 100%, 100%)" fill-opacity="1">
<use xlink:href="#glyph-0-0" x="833.549972" y="137.063797"/>
<use xlink:href="#glyph-0-1" x="833.549972" y="125.078374"/>
<use xlink:href="#glyph-0-2" x="833.549972" y="113.092952"/>
<use xlink:href="#glyph-0-3" x="833.549972" y="101.107529"/>
<use xlink:href="#glyph-0-4" x="833.549972" y="89.122106"/>
<use xlink:href="#glyph-0-5" x="833.549972" y="77.136683"/>
<use xlink:href="#glyph-0-6" x="833.549972" y="65.15126"/>
<use xlink:href="#glyph-0-7" x="833.549972" y="53.165837"/>
<use xlink:href="#glyph-0-8" x="833.549972" y="41.180415"/>
<use xlink:href="#glyph-0-9" x="833.549972" y="29.194992"/>
<use xlink:href="#glyph-0-10" x="833.549972" y="17.209569"/>
</g>
</svg>
