<?xml version="1.0" encoding="UTF-8"?>
<svg xmlns="http://www.w3.org/2000/svg" xmlns:xlink="http://www.w3.org/1999/xlink" width="841.89pt" height="595.276pt" viewBox="0 0 841.89 595.276">
<defs>
<g>
<g id="glyph-0-0">
<path d="M -0.859375 -10.4375 C -0.109375 -9.363281 0.265625 -8.113281 0.265625 -6.6875 C 0.265625 -4.90625 -0.34375 -3.550781 -1.5625 -2.625 C -2.789062 -1.695312 -4.5625 -1.234375 -6.875 -1.234375 C -9.113281 -1.234375 -10.863281 -1.679688 -12.125 -2.578125 C -13.382812 -3.472656 -14.015625 -4.84375 -14.015625 -6.6875 C -14.015625 -7.351562 -13.929688 -8.007812 -13.765625 -8.65625 C -13.597656 -9.3125 -13.375 -9.835938 -13.09375 -10.234375 L -11.84375 -9.703125 C -12.351562 -8.785156 -12.609375 -7.78125 -12.609375 -6.6875 C -12.609375 -5.414062 -12.148438 -4.472656 -11.234375 -3.859375 C -10.316406 -3.242188 -8.863281 -2.9375 -6.875 -2.9375 C -3.050781 -2.9375 -1.140625 -4.1875 -1.140625 -6.6875 C -1.140625 -7.75 -1.460938 -8.835938 -2.109375 -9.953125 Z M -0.859375 -10.4375 "/>
</g>
<g id="glyph-0-1">
<path d="M -14.015625 -5.96875 C -14.015625 -7.507812 -13.40625 -8.679688 -12.1875 -9.484375 C -10.96875 -10.296875 -9.195312 -10.703125 -6.875 -10.703125 C -4.5625 -10.703125 -2.789062 -10.296875 -1.5625 -9.484375 C -0.34375 -8.679688 0.265625 -7.507812 0.265625 -5.96875 C 0.265625 -4.4375 -0.34375 -3.265625 -1.5625 -2.453125 C -2.78125 -1.640625 -4.550781 -1.234375 -6.875 -1.234375 C -9.195312 -1.234375 -10.96875 -1.632812 -12.1875 -2.4375 C -13.40625 -3.25 -14.015625 -4.425781 -14.015625 -5.96875 Z M -1.140625 -5.96875 C -1.140625 -8 -3.050781 -9.015625 -6.875 -9.015625 C -10.695312 -9.015625 -12.609375 -8 -12.609375 -5.96875 C -12.609375 -4.976562 -12.113281 -4.222656 -11.125 -3.703125 C -10.132812 -3.191406 -8.71875 -2.9375 -6.875 -2.9375 C -5.007812 -2.9375 -3.585938 -3.191406 -2.609375 -3.703125 C -1.628906 -4.210938 -1.140625 -4.96875 -1.140625 -5.96875 Z M -1.140625 -5.96875 "/>
</g>
<g id="glyph-0-2">
<path d="M 0 -10.421875 L 0 -8.875 L -11.796875 -8.875 L -6.15625 -6.8125 L -6.15625 -5.296875 L -11.796875 -3.21875 L 0 -3.21875 L 0 -1.671875 L -13.75 -1.671875 L -13.75 -3.75 L -7.484375 -6.0625 L -13.75 -8.34375 L -13.75 -10.421875 Z M 0 -10.421875 "/>
</g>
<g id="glyph-0-3">
<path d="M 0 -9.6875 L 0 -2.5 L -13.75 -2.5 L -13.75 -9.625 L -12.359375 -9.625 L -12.359375 -4.09375 L -8.109375 -4.09375 L -8.109375 -9.40625 L -6.703125 -9.40625 L -6.703125 -4.09375 L -1.390625 -4.09375 L -1.390625 -9.6875 Z M 0 -9.6875 "/>
</g>
<g id="glyph-0-4">
<path d="M 0 -9.984375 L 0 -2.5 L -13.75 -2.5 L -13.75 -4.09375 L -1.390625 -4.09375 L -1.390625 -9.984375 Z M 0 -9.984375 "/>
</g>
<g id="glyph-0-5">
<path d="M 0 -10.140625 L 0 -8.359375 L -10.859375 -3.4375 L 0 -3.4375 L 0 -1.828125 L -13.75 -1.828125 L -13.75 -3.625 L -3 -8.578125 L -13.75 -8.578125 L -13.75 -10.140625 Z M 0 -10.140625 "/>
</g>
<g id="glyph-0-6">
</g>
<g id="glyph-0-7">
<path d="M -0.96875 -10.421875 C -0.144531 -9.296875 0.265625 -8.050781 0.265625 -6.6875 C 0.265625 -4.894531 -0.335938 -3.535156 -1.546875 -2.609375 C -2.765625 -1.691406 -4.539062 -1.234375 -6.875 -1.234375 C -9.125 -1.234375 -10.875 -1.679688 -12.125 -2.578125 C -13.382812 -3.472656 -14.015625 -4.84375 -14.015625 -6.6875 C -14.015625 -7.351562 -13.929688 -8.007812 -13.765625 -8.65625 C -13.597656 -9.3125 -13.375 -9.835938 -13.09375 -10.234375 L -11.84375 -9.703125 C -12.351562 -8.785156 -12.609375 -7.78125 -12.609375 -6.6875 C -12.609375 -5.425781 -12.144531 -4.484375 -11.21875 -3.859375 C -10.300781 -3.242188 -8.851562 -2.9375 -6.875 -2.9375 C -3.050781 -2.9375 -1.140625 -4.1875 -1.140625 -6.6875 C -1.140625 -7.632812 -1.335938 -8.347656 -1.734375 -8.828125 L -5.125 -8.828125 L -5.125 -6.34375 L -6.515625 -6.34375 L -6.515625 -10.421875 Z M -0.96875 -10.421875 "/>
</g>
<g id="glyph-0-8">
<path d="M 0 -11.46875 L 0 -9.796875 L -4.8125 -8.265625 L -4.8125 -3.75 L 0 -2.21875 L 0 -0.5625 L -13.75 -5.046875 L -13.75 -6.96875 Z M -6.21875 -7.8125 L -11.90625 -6 L -6.21875 -4.21875 Z M -6.21875 -7.8125 "/>
</g>
<g id="glyph-1-0">
<path d="M 0 -9.640625 L 0 -2.484375 L -13.6875 -2.484375 L -13.6875 -9.578125 L -12.3125 -9.578125 L -12.3125 -4.078125 L -8.0625 -4.078125 L -8.0625 -9.359375 L -6.671875 -9.359375 L -6.671875 -4.078125 L -1.390625 -4.078125 L -1.390625 -9.640625 Z M 0 -9.640625 "/>
</g>
<g id="glyph-1-1">
<path d="M 0 -10.375 L 0 -8.84375 L -11.75 -8.84375 L -6.125 -6.78125 L -6.125 -5.265625 L -11.75 -3.203125 L 0 -3.203125 L 0 -1.671875 L -13.6875 -1.671875 L -13.6875 -3.734375 L -7.453125 -6.03125 L -13.6875 -8.3125 L -13.6875 -10.375 Z M 0 -10.375 "/>
</g>
<g id="glyph-1-2">
<path d="M 0 -9 L 0 -2.78125 L -1.390625 -2.78125 L -1.390625 -5.140625 L -12.3125 -5.140625 L -12.3125 -2.78125 L -13.6875 -2.78125 L -13.6875 -9 L -12.3125 -9 L -12.3125 -6.734375 L -1.390625 -6.734375 L -1.390625 -9 Z M 0 -9 "/>
</g>
<g id="glyph-1-3">
<path d="M -11.546875 -5.828125 C -11.585938 -5.484375 -11.722656 -5.203125 -11.953125 -4.984375 C -12.191406 -4.765625 -12.46875 -4.65625 -12.78125 -4.65625 C -13.113281 -4.65625 -13.390625 -4.757812 -13.609375 -4.96875 C -13.835938 -5.1875 -13.953125 -5.457031 -13.953125 -5.78125 C -13.953125 -6.144531 -13.804688 -6.457031 -13.515625 -6.71875 C -13.222656 -6.976562 -12.863281 -7.109375 -12.4375 -7.109375 C -11.175781 -7.109375 -10.191406 -6.40625 -9.484375 -5 L -10.1875 -4.625 C -10.570312 -5.425781 -11.023438 -5.828125 -11.546875 -5.828125 Z M -11.546875 -5.828125 "/>
</g>
<g id="glyph-1-4">
<path d="M -12.171875 -8.875 C -12.453125 -8.0625 -12.59375 -7.289062 -12.59375 -6.5625 C -12.59375 -5.726562 -12.40625 -5.050781 -12.03125 -4.53125 C -11.65625 -4.007812 -11.113281 -3.75 -10.40625 -3.75 C -9.582031 -3.75 -8.859375 -4.429688 -8.234375 -5.796875 C -7.765625 -6.804688 -7.4375 -7.472656 -7.25 -7.796875 C -7.070312 -8.128906 -6.820312 -8.460938 -6.5 -8.796875 C -6.1875 -9.140625 -5.816406 -9.410156 -5.390625 -9.609375 C -4.960938 -9.816406 -4.476562 -9.921875 -3.9375 -9.921875 C -2.601562 -9.921875 -1.566406 -9.472656 -0.828125 -8.578125 C -0.0976562 -7.679688 0.265625 -6.625 0.265625 -5.40625 C 0.265625 -4.226562 0.0273438 -3.195312 -0.4375 -2.3125 L -1.8125 -2.640625 C -1.332031 -3.679688 -1.09375 -4.585938 -1.09375 -5.359375 C -1.09375 -6.265625 -1.328125 -6.988281 -1.796875 -7.53125 C -2.265625 -8.082031 -2.910156 -8.359375 -3.734375 -8.359375 C -4.347656 -8.359375 -4.863281 -8.179688 -5.28125 -7.828125 C -5.707031 -7.472656 -6.140625 -6.816406 -6.578125 -5.859375 C -7.035156 -4.878906 -7.34375 -4.242188 -7.5 -3.953125 C -7.664062 -3.660156 -7.894531 -3.375 -8.1875 -3.09375 C -8.476562 -2.8125 -8.804688 -2.59375 -9.171875 -2.4375 C -9.535156 -2.28125 -9.929688 -2.203125 -10.359375 -2.203125 C -11.484375 -2.203125 -12.363281 -2.609375 -13 -3.421875 C -13.632812 -4.242188 -13.953125 -5.273438 -13.953125 -6.515625 C -13.953125 -7.429688 -13.8125 -8.335938 -13.53125 -9.234375 Z M -12.171875 -8.875 "/>
</g>
<g id="glyph-1-5">
</g>
<g id="glyph-1-6">
<path d="M -13.6875 -11.515625 L 0 -9.765625 L 0 -8.28125 L -7.71875 -5.953125 L 0 -3.640625 L 0 -2.125 L -13.6875 -0.421875 L -13.6875 -1.984375 L -2.5625 -3.140625 L -9.296875 -5.15625 L -9.296875 -6.75 L -2.546875 -8.78125 L -13.6875 -9.953125 Z M -13.6875 -11.515625 "/>
</g>
<g id="glyph-1-7">
<path d="M -13.953125 -5.9375 C -13.953125 -7.46875 -13.34375 -8.632812 -12.125 -9.4375 C -10.914062 -10.25 -9.15625 -10.65625 -6.84375 -10.65625 C -4.539062 -10.65625 -2.78125 -10.253906 -1.5625 -9.453125 C -0.34375 -8.648438 0.265625 -7.476562 0.265625 -5.9375 C 0.265625 -4.414062 -0.335938 -3.25 -1.546875 -2.4375 C -2.765625 -1.632812 -4.53125 -1.234375 -6.84375 -1.234375 C -9.15625 -1.234375 -10.914062 -1.632812 -12.125 -2.4375 C -13.34375 -3.238281 -13.953125 -4.40625 -13.953125 -5.9375 Z M -1.140625 -5.9375 C -1.140625 -7.957031 -3.039062 -8.96875 -6.84375 -8.96875 C -10.65625 -8.96875 -12.5625 -7.957031 -12.5625 -5.9375 C -12.5625 -4.957031 -12.066406 -4.207031 -11.078125 -3.6875 C -10.085938 -3.175781 -8.675781 -2.921875 -6.84375 -2.921875 C -4.988281 -2.921875 -3.570312 -3.175781 -2.59375 -3.6875 C -1.625 -4.195312 -1.140625 -4.945312 -1.140625 -5.9375 Z M -1.140625 -5.9375 "/>
</g>
<g id="glyph-1-8">
<path d="M 0 -10.09375 L 0 -8.328125 L -10.8125 -3.421875 L 0 -3.421875 L 0 -1.828125 L -13.6875 -1.828125 L -13.6875 -3.59375 L -2.984375 -8.53125 L -13.6875 -8.53125 L -13.6875 -10.09375 Z M 0 -10.09375 "/>
</g>
<g id="glyph-1-9">
<path d="M -13.6875 -2.03125 L -13.6875 -4.71875 C -13.6875 -6.519531 -13.078125 -7.957031 -11.859375 -9.03125 C -10.640625 -10.113281 -8.96875 -10.65625 -6.84375 -10.65625 C -4.664062 -10.65625 -2.976562 -10.101562 -1.78125 -9 C -0.59375 -7.90625 0 -6.503906 0 -4.796875 L 0 -2.03125 Z M -1.390625 -3.625 L -1.390625 -4.75 C -1.390625 -6.050781 -1.867188 -7.078125 -2.828125 -7.828125 C -3.796875 -8.585938 -5.132812 -8.96875 -6.84375 -8.96875 C -8.539062 -8.96875 -9.875 -8.585938 -10.84375 -7.828125 C -11.820312 -7.066406 -12.3125 -6.039062 -12.3125 -4.75 L -12.3125 -3.625 Z M -1.390625 -3.625 "/>
</g>
<g id="glyph-1-10">
<path d="M 0 -11.390625 L 0 -9.40625 L -6.21875 -5.390625 L -6.21875 -3.625 L 0 -3.625 L 0 -2.03125 L -13.6875 -2.03125 L -13.6875 -5.90625 C -13.6875 -7.195312 -13.367188 -8.21875 -12.734375 -8.96875 C -12.109375 -9.726562 -11.234375 -10.109375 -10.109375 -10.109375 C -9.273438 -10.109375 -8.53125 -9.832031 -7.875 -9.28125 C -7.226562 -8.738281 -6.789062 -7.984375 -6.5625 -7.015625 Z M -7.609375 -3.625 L -7.609375 -5.625 C -7.609375 -6.46875 -7.835938 -7.148438 -8.296875 -7.671875 C -8.753906 -8.203125 -9.328125 -8.46875 -10.015625 -8.46875 C -11.546875 -8.46875 -12.3125 -7.535156 -12.3125 -5.671875 L -12.3125 -3.625 Z M -7.609375 -3.625 "/>
</g>
<g id="glyph-1-11">
<path d="M 0 -11.40625 L 0 -9.75 L -4.796875 -8.234375 L -4.796875 -3.734375 L 0 -2.203125 L 0 -0.546875 L -13.6875 -5.03125 L -13.6875 -6.9375 Z M -6.1875 -7.765625 L -11.84375 -5.984375 L -6.1875 -4.1875 Z M -6.1875 -7.765625 "/>
</g>
<g id="glyph-1-12">
<path d="M -7.515625 -7.609375 C -7.296875 -8.523438 -6.878906 -9.238281 -6.265625 -9.75 C -5.648438 -10.269531 -4.921875 -10.53125 -4.078125 -10.53125 C -2.835938 -10.53125 -1.847656 -10.078125 -1.109375 -9.171875 C -0.367188 -8.273438 0 -7.191406 0 -5.921875 L 0 -2.03125 L -13.6875 -2.03125 L -13.6875 -5.828125 C -13.6875 -7.140625 -13.394531 -8.164062 -12.8125 -8.90625 C -12.238281 -9.65625 -11.425781 -10.03125 -10.375 -10.03125 C -9.726562 -10.03125 -9.148438 -9.816406 -8.640625 -9.390625 C -8.140625 -8.960938 -7.773438 -8.367188 -7.546875 -7.609375 Z M -8.25 -3.625 L -8.25 -5.484375 C -8.25 -7.429688 -8.941406 -8.40625 -10.328125 -8.40625 C -10.960938 -8.40625 -11.453125 -8.164062 -11.796875 -7.6875 C -12.140625 -7.207031 -12.3125 -6.503906 -12.3125 -5.578125 L -12.3125 -3.625 Z M -1.390625 -3.625 L -1.390625 -5.421875 C -1.390625 -6.472656 -1.628906 -7.304688 -2.109375 -7.921875 C -2.585938 -8.546875 -3.242188 -8.859375 -4.078125 -8.859375 C -4.960938 -8.859375 -5.644531 -8.550781 -6.125 -7.9375 C -6.613281 -7.332031 -6.859375 -6.457031 -6.859375 -5.3125 L -6.859375 -3.625 Z M -1.390625 -3.625 "/>
</g>
<g id="glyph-1-13">
<path d="M -0.96875 -10.375 C -0.144531 -9.257812 0.265625 -8.019531 0.265625 -6.65625 C 0.265625 -4.875 -0.335938 -3.523438 -1.546875 -2.609375 C -2.753906 -1.691406 -4.519531 -1.234375 -6.84375 -1.234375 C -9.082031 -1.234375 -10.828125 -1.675781 -12.078125 -2.5625 C -13.328125 -3.457031 -13.953125 -4.820312 -13.953125 -6.65625 C -13.953125 -7.3125 -13.867188 -7.960938 -13.703125 -8.609375 C -13.535156 -9.265625 -13.3125 -9.789062 -13.03125 -10.1875 L -11.78125 -9.65625 C -12.300781 -8.738281 -12.5625 -7.738281 -12.5625 -6.65625 C -12.5625 -5.40625 -12.097656 -4.46875 -11.171875 -3.84375 C -10.253906 -3.226562 -8.8125 -2.921875 -6.84375 -2.921875 C -3.039062 -2.921875 -1.140625 -4.164062 -1.140625 -6.65625 C -1.140625 -7.59375 -1.335938 -8.300781 -1.734375 -8.78125 L -5.109375 -8.78125 L -5.109375 -6.3125 L -6.484375 -6.3125 L -6.484375 -10.375 Z M -0.96875 -10.375 "/>
</g>
</g>
<clipPath id="clip-0">
<path clip-rule="nonzero" d="M 0.457031 0 L 841.324219 0 L 841.324219 594.554688 L 0.457031 594.554688 Z M 0.457031 0 "/>
</clipPath>
<clipPath id="clip-1">
<path clip-rule="nonzero" d="M 0.457031 0 L 719 0 L 719 593.746094 L 0.457031 593.746094 Z M 0.457031 0 "/>
</clipPath>
</defs>
<g clip-path="url(#clip-0)">
<path fill-rule="nonzero" fill="rgb(0%, 0%, 100%)" fill-opacity="1" d="M 0.457031 594.554688 L 841.324219 594.554688 L 841.324219 0 L 0.457031 0 Z M 0.457031 594.554688 "/>
</g>
<g fill="rgb(100%, 100%, 100%)" fill-opacity="1">
<use xlink:href="#glyph-0-0" x="832.723777" y="233.945965"/>
<use xlink:href="#glyph-0-1" x="832.723777" y="221.960542"/>
<use xlink:href="#glyph-0-0" x="832.723777" y="209.975119"/>
<use xlink:href="#glyph-0-1" x="832.723777" y="197.989697"/>
<use xlink:href="#glyph-0-2" x="832.723777" y="186.004274"/>
<use xlink:href="#glyph-0-3" x="832.723777" y="174.018851"/>
<use xlink:href="#glyph-0-4" x="832.723777" y="162.033428"/>
<use xlink:href="#glyph-0-1" x="832.723777" y="150.048005"/>
<use xlink:href="#glyph-0-5" x="832.723777" y="138.062582"/>
<use xlink:href="#glyph-0-6" x="832.723777" y="126.07716"/>
<use xlink:href="#glyph-0-7" x="832.723777" y="114.091737"/>
<use xlink:href="#glyph-0-8" x="832.723777" y="102.106314"/>
<use xlink:href="#glyph-0-2" x="832.723777" y="90.120891"/>
<use xlink:href="#glyph-0-3" x="832.723777" y="78.135468"/>
<use xlink:href="#glyph-0-6" x="832.723777" y="66.150046"/>
<use xlink:href="#glyph-0-4" x="832.723777" y="54.164623"/>
<use xlink:href="#glyph-0-1" x="832.723777" y="42.1792"/>
<use xlink:href="#glyph-0-7" x="832.723777" y="30.193777"/>
<use xlink:href="#glyph-0-1" x="832.723777" y="18.208354"/>
</g>
<g clip-path="url(#clip-1)">
<path fill="none" stroke-width="2.5" stroke-linecap="butt" stroke-linejoin="miter" stroke="rgb(100%, 100%, 100%)" stroke-opacity="1" stroke-miterlimit="4" d="M 0.000187674 0.000946029 C 0.000187674 47.425744 6.195213 90.517152 18.585264 129.255616 C 30.959671 167.982348 48.347981 201.049861 70.761928 228.458155 C 93.144586 255.854717 119.770681 277.08363 150.593279 292.101874 C 181.431522 307.120117 215.547183 314.625328 252.963729 314.625328 C 289.856201 314.625328 323.84671 307.120117 354.94699 292.101874 C 386.031625 277.08363 412.65772 255.854717 434.793985 228.458155 C 456.93025 201.049861 474.181676 167.982348 486.571727 129.255616 C 498.946134 90.517152 505.141159 47.425744 505.141159 0.000946029 C 505.141159 -47.427762 498.946134 -90.51526 486.571727 -129.257635 C 474.181676 -167.980456 456.93025 -201.188765 434.793985 -228.859096 C 412.65772 -256.529428 386.031625 -277.867849 354.94699 -292.886093 C 323.84671 -307.904337 289.856201 -315.42128 252.963729 -315.42128 C 215.547183 -315.42128 181.431522 -307.904337 150.593279 -292.886093 C 119.770681 -277.867849 93.144586 -256.529428 70.761928 -228.859096 C 48.347981 -201.188765 30.959671 -167.980456 18.585264 -129.257635 C 6.195213 -90.51526 0.000187674 -47.427762 0.000187674 0.000946029 Z M 153.362268 0.000946029 C 153.362268 -26.363111 155.728423 -50.329725 160.48029 -71.930183 C 165.228245 -93.558019 171.947344 -112.252603 180.633677 -128.056958 C 189.335655 -143.876957 199.727184 -156.126212 211.870842 -164.828189 C 223.983212 -173.514522 237.683448 -177.867466 252.963729 -177.867466 C 267.719936 -177.867466 281.29502 -173.514522 293.685071 -164.828189 C 306.063389 -156.126212 316.470562 -143.876957 324.906591 -128.056958 C 333.334798 -112.252603 339.928746 -93.558019 344.676701 -71.930183 C 349.412923 -50.329725 351.779079 -26.363111 351.779079 0.000946029 C 351.779079 25.813552 349.412923 49.670658 344.676701 71.544886 C 339.928746 93.407382 333.334798 112.11761 324.906591 127.671661 C 316.470562 143.213979 306.063389 155.345904 293.685071 164.028326 C 281.29502 172.730303 267.719936 177.079336 252.963729 177.079336 C 237.683448 177.079336 223.983212 172.730303 211.870842 164.028326 C 199.727184 155.345904 189.335655 143.213979 180.633677 127.671661 C 171.947344 112.11761 165.228245 93.407382 160.48029 71.544886 C 155.728423 49.670658 153.362268 25.813552 153.362268 0.000946029 Z M 744.776009 -240.470858 C 744.776009 -232.711432 746.22699 -225.370484 749.140686 -218.412813 C 752.042649 -211.474697 756.086624 -205.412646 761.260878 -200.238391 C 766.419488 -195.071959 772.48154 -191.031895 779.435299 -188.126022 C 786.381237 -185.212326 793.733919 -183.761344 801.493345 -183.761344 C 809.241038 -183.761344 816.593719 -185.212326 823.539657 -188.126022 C 830.489506 -191.031895 836.547646 -195.071959 841.725812 -200.238391 C 846.888333 -205.412646 850.932308 -211.474697 853.838182 -218.412813 C 856.747966 -225.370484 858.202859 -232.711432 858.202859 -240.470858 C 858.202859 -248.226373 856.747966 -255.579055 853.838182 -262.528904 C 850.932308 -269.482663 846.888333 -275.536893 841.725812 -280.703325 C 836.547646 -285.877579 830.489506 -289.909821 823.539657 -292.823517 C 816.593719 -295.729391 809.241038 -297.188194 801.493345 -297.188194 C 793.733919 -297.188194 786.381237 -295.729391 779.435299 -292.823517 C 772.48154 -289.909821 766.419488 -285.877579 761.260878 -280.703325 C 756.086624 -275.536893 752.042649 -269.482663 749.140686 -262.528904 C 746.22699 -255.579055 744.776009 -248.226373 744.776009 -240.470858 Z M 456.754255 64.731923 C 460.942937 64.203938 464.482393 63.941901 467.368712 63.941901 L 474.838724 63.941901 C 494.229466 63.941901 509.959512 69.710627 522.028861 81.24808 C 534.078655 92.7738 540.11333 107.713823 540.11333 126.072062 C 540.11333 143.890582 534.477577 158.318264 523.206072 169.323821 C 511.926746 180.333289 497.373911 185.839978 479.555391 185.839978 C 460.684811 185.839978 445.467107 179.547178 433.941387 166.969398 C 422.403934 154.383797 416.646941 138.125766 416.646941 118.203128 L 274.298239 118.203128 C 277.955025 149.135234 285.702718 176.66477 297.498297 200.783913 C 309.293876 224.895234 324.35514 245.220705 342.71729 261.736862 C 361.063795 278.253019 382.558656 290.830798 407.209695 299.481933 C 431.841179 308.136978 459.108678 312.458634 488.992636 312.458634 C 518.348609 312.458634 544.951238 308.391193 568.816165 300.268044 C 592.66936 292.133162 613.116073 280.607442 630.160215 265.667418 C 647.192624 250.723484 660.306211 232.631193 669.489241 211.40228 C 678.648805 190.169456 683.244231 166.441413 683.244231 140.229885 C 683.244231 111.918149 677.862694 88.718092 667.123085 70.625801 C 656.375655 52.541333 641.036709 36.936439 621.121892 23.834586 C 651.518192 14.397341 675.246234 -2.513828 692.290376 -26.895007 C 709.322786 -51.272276 717.852679 -81.29312 717.852679 -116.941893 C 717.852679 -146.305688 712.07613 -173.053024 700.55041 -197.156523 C 689.009047 -221.275666 672.891812 -241.984416 652.183062 -259.282773 C 631.462579 -276.592863 606.831095 -289.960664 578.253411 -299.39791 C 549.679638 -308.831244 518.348609 -313.555733 484.275969 -313.555733 C 438.661965 -313.555733 397.49868 -304.626918 360.80958 -286.808397 C 324.104836 -268.993788 294.748863 -240.682052 272.726017 -201.884923 C 262.760786 -184.570922 256.069064 -167.272564 252.666493 -149.978118 C 249.2561 -132.664117 247.558726 -115.107634 247.558726 -97.277381 L 400.130784 -97.277381 C 401.167199 -125.076775 409.29817 -146.168803 424.508053 -160.592575 C 439.710113 -175.012435 460.156826 -182.216499 485.848191 -182.216499 C 513.103957 -182.216499 533.038329 -174.87555 545.616108 -160.193653 C 558.20562 -145.523488 564.49842 -127.431198 564.49842 -105.932426 C 564.49842 -80.252793 556.887613 -60.846407 541.685552 -47.740643 C 526.47958 -34.630967 508.38729 -28.072219 487.424325 -28.072219 C 482.179672 -28.072219 477.200968 -28.46723 472.484301 -29.24943 C 467.763723 -30.043363 462.511249 -30.962448 456.754255 -32.002775 Z M 456.754255 64.731923 " transform="matrix(0.998785, 0, 0, -0.998785, -152.984562, 296.727507)"/>
</g>
<path fill-rule="nonzero" fill="rgb(0%, 0%, 100%)" fill-opacity="1" d="M 814.710938 248.015625 L 833.113281 248.015625 L 833.113281 7.078125 L 814.710938 7.078125 Z M 814.710938 248.015625 "/>
<g fill="rgb(100%, 100%, 100%)" fill-opacity="1">
<use xlink:href="#glyph-1-0" x="832.987756" y="388.840675"/>
<use xlink:href="#glyph-1-1" x="832.987756" y="376.912543"/>
<use xlink:href="#glyph-1-1" x="832.987756" y="364.98441"/>
<use xlink:href="#glyph-1-2" x="832.987756" y="353.056278"/>
<use xlink:href="#glyph-1-0" x="832.987756" y="341.128145"/>
<use xlink:href="#glyph-1-3" x="832.987756" y="329.200013"/>
<use xlink:href="#glyph-1-4" x="832.987756" y="317.27188"/>
<use xlink:href="#glyph-1-5" x="832.987756" y="305.343748"/>
<use xlink:href="#glyph-1-6" x="832.987756" y="293.415615"/>
<use xlink:href="#glyph-1-7" x="832.987756" y="281.487483"/>
<use xlink:href="#glyph-1-8" x="832.987756" y="269.55935"/>
<use xlink:href="#glyph-1-9" x="832.987756" y="257.631218"/>
<use xlink:href="#glyph-1-0" x="832.987756" y="245.703085"/>
<use xlink:href="#glyph-1-10" x="832.987756" y="233.774953"/>
<use xlink:href="#glyph-1-5" x="832.987756" y="221.84682"/>
<use xlink:href="#glyph-1-6" x="832.987756" y="209.918688"/>
<use xlink:href="#glyph-1-11" x="832.987756" y="197.990555"/>
<use xlink:href="#glyph-1-10" x="832.987756" y="186.062423"/>
<use xlink:href="#glyph-1-9" x="832.987756" y="174.13429"/>
<use xlink:href="#glyph-1-10" x="832.987756" y="162.206158"/>
<use xlink:href="#glyph-1-7" x="832.987756" y="150.278025"/>
<use xlink:href="#glyph-1-12" x="832.987756" y="138.349893"/>
<use xlink:href="#glyph-1-0" x="832.987756" y="126.42176"/>
<use xlink:href="#glyph-1-5" x="832.987756" y="114.493628"/>
<use xlink:href="#glyph-1-12" x="832.987756" y="102.565495"/>
<use xlink:href="#glyph-1-10" x="832.987756" y="90.637363"/>
<use xlink:href="#glyph-1-11" x="832.987756" y="78.70923"/>
<use xlink:href="#glyph-1-8" x="832.987756" y="66.781098"/>
<use xlink:href="#glyph-1-9" x="832.987756" y="54.852965"/>
<use xlink:href="#glyph-1-2" x="832.987756" y="42.924833"/>
<use xlink:href="#glyph-1-8" x="832.987756" y="30.9967"/>
<use xlink:href="#glyph-1-13" x="832.987756" y="19.068568"/>
</g>
</svg>
