<?xml version="1.0" encoding="UTF-8"?>
<svg xmlns="http://www.w3.org/2000/svg" xmlns:xlink="http://www.w3.org/1999/xlink" width="841.89pt" height="595.276pt" viewBox="0 0 841.89 595.276">
<defs>
<g>
<g id="glyph-0-0">
<path d="M 0 -10.421875 L 0 -8.875 L -11.796875 -8.875 L -6.15625 -6.8125 L -6.15625 -5.296875 L -11.796875 -3.21875 L 0 -3.21875 L 0 -1.671875 L -13.75 -1.671875 L -13.75 -3.75 L -7.484375 -6.0625 L -13.75 -8.34375 L -13.75 -10.421875 Z M 0 -10.421875 "/>
</g>
<g id="glyph-0-1">
<path d="M -14.015625 -5.96875 C -14.015625 -7.507812 -13.40625 -8.679688 -12.1875 -9.484375 C -10.96875 -10.296875 -9.195312 -10.703125 -6.875 -10.703125 C -4.5625 -10.703125 -2.789062 -10.296875 -1.5625 -9.484375 C -0.34375 -8.679688 0.265625 -7.507812 0.265625 -5.96875 C 0.265625 -4.4375 -0.34375 -3.265625 -1.5625 -2.453125 C -2.78125 -1.640625 -4.550781 -1.234375 -6.875 -1.234375 C -9.195312 -1.234375 -10.96875 -1.632812 -12.1875 -2.4375 C -13.40625 -3.25 -14.015625 -4.425781 -14.015625 -5.96875 Z M -1.140625 -5.96875 C -1.140625 -8 -3.050781 -9.015625 -6.875 -9.015625 C -10.695312 -9.015625 -12.609375 -8 -12.609375 -5.96875 C -12.609375 -4.976562 -12.113281 -4.222656 -11.125 -3.703125 C -10.132812 -3.191406 -8.71875 -2.9375 -6.875 -2.9375 C -5.007812 -2.9375 -3.585938 -3.191406 -2.609375 -3.703125 C -1.628906 -4.210938 -1.140625 -4.96875 -1.140625 -5.96875 Z M -1.140625 -5.96875 "/>
</g>
<g id="glyph-0-2">
<path d="M 0 -10.140625 L 0 -8.359375 L -10.859375 -3.4375 L 0 -3.4375 L 0 -1.828125 L -13.75 -1.828125 L -13.75 -3.625 L -3 -8.578125 L -13.75 -8.578125 L -13.75 -10.140625 Z M 0 -10.140625 "/>
</g>
<g id="glyph-0-3">
<path d="M -7.546875 -7.640625 C -7.328125 -8.554688 -6.910156 -9.273438 -6.296875 -9.796875 C -5.679688 -10.316406 -4.945312 -10.578125 -4.09375 -10.578125 C -2.84375 -10.578125 -1.847656 -10.125 -1.109375 -9.21875 C -0.367188 -8.3125 0 -7.222656 0 -5.953125 L 0 -2.03125 L -13.75 -2.03125 L -13.75 -5.84375 C -13.75 -7.175781 -13.457031 -8.210938 -12.875 -8.953125 C -12.300781 -9.703125 -11.484375 -10.078125 -10.421875 -10.078125 C -9.773438 -10.078125 -9.195312 -9.859375 -8.6875 -9.421875 C -8.175781 -8.992188 -7.804688 -8.398438 -7.578125 -7.640625 Z M -8.28125 -3.640625 L -8.28125 -5.515625 C -8.28125 -7.460938 -8.984375 -8.4375 -10.390625 -8.4375 C -11.023438 -8.4375 -11.507812 -8.195312 -11.84375 -7.71875 C -12.1875 -7.238281 -12.359375 -6.535156 -12.359375 -5.609375 L -12.359375 -3.640625 Z M -1.390625 -3.640625 L -1.390625 -5.453125 C -1.390625 -6.515625 -1.628906 -7.351562 -2.109375 -7.96875 C -2.597656 -8.59375 -3.257812 -8.90625 -4.09375 -8.90625 C -4.988281 -8.90625 -5.675781 -8.597656 -6.15625 -7.984375 C -6.644531 -7.367188 -6.890625 -6.484375 -6.890625 -5.328125 L -6.890625 -3.640625 Z M -1.390625 -3.640625 "/>
</g>
<g id="glyph-0-4">
<path d="M -4.328125 -9.953125 C -2.734375 -9.953125 -1.566406 -9.625 -0.828125 -8.96875 C -0.0976562 -8.320312 0.265625 -7.34375 0.265625 -6.03125 C 0.265625 -3.363281 -1.253906 -2.03125 -4.296875 -2.03125 L -13.75 -2.03125 L -13.75 -3.640625 L -4.4375 -3.640625 C -2.238281 -3.640625 -1.140625 -4.4375 -1.140625 -6.03125 C -1.140625 -6.820312 -1.398438 -7.40625 -1.921875 -7.78125 C -2.441406 -8.15625 -3.285156 -8.34375 -4.453125 -8.34375 L -13.75 -8.34375 L -13.75 -9.953125 Z M -4.328125 -9.953125 "/>
</g>
<g id="glyph-0-5">
<path d="M -0.96875 -10.421875 C -0.144531 -9.296875 0.265625 -8.050781 0.265625 -6.6875 C 0.265625 -4.894531 -0.335938 -3.535156 -1.546875 -2.609375 C -2.765625 -1.691406 -4.539062 -1.234375 -6.875 -1.234375 C -9.125 -1.234375 -10.875 -1.679688 -12.125 -2.578125 C -13.382812 -3.472656 -14.015625 -4.84375 -14.015625 -6.6875 C -14.015625 -7.351562 -13.929688 -8.007812 -13.765625 -8.65625 C -13.597656 -9.3125 -13.375 -9.835938 -13.09375 -10.234375 L -11.84375 -9.703125 C -12.351562 -8.785156 -12.609375 -7.78125 -12.609375 -6.6875 C -12.609375 -5.425781 -12.144531 -4.484375 -11.21875 -3.859375 C -10.300781 -3.242188 -8.851562 -2.9375 -6.875 -2.9375 C -3.050781 -2.9375 -1.140625 -4.1875 -1.140625 -6.6875 C -1.140625 -7.632812 -1.335938 -8.347656 -1.734375 -8.828125 L -5.125 -8.828125 L -5.125 -6.34375 L -6.515625 -6.34375 L -6.515625 -10.421875 Z M -0.96875 -10.421875 "/>
</g>
<g id="glyph-0-6">
</g>
<g id="glyph-0-7">
<path d="M 0 -11.46875 L 0 -9.796875 L -4.8125 -8.265625 L -4.8125 -3.75 L 0 -2.21875 L 0 -0.5625 L -13.75 -5.046875 L -13.75 -6.96875 Z M -6.21875 -7.8125 L -11.90625 -6 L -6.21875 -4.21875 Z M -6.21875 -7.8125 "/>
</g>
<g id="glyph-0-8">
<path d="M 0 -9.984375 L 0 -2.5 L -13.75 -2.5 L -13.75 -4.09375 L -1.390625 -4.09375 L -1.390625 -9.984375 Z M 0 -9.984375 "/>
</g>
<g id="glyph-0-9">
<path d="M 0 -11.453125 L 0 -9.453125 L -6.25 -5.40625 L -6.25 -3.640625 L 0 -3.640625 L 0 -2.03125 L -13.75 -2.03125 L -13.75 -5.921875 C -13.75 -7.234375 -13.429688 -8.265625 -12.796875 -9.015625 C -12.171875 -9.773438 -11.289062 -10.15625 -10.15625 -10.15625 C -9.320312 -10.15625 -8.578125 -9.878906 -7.921875 -9.328125 C -7.265625 -8.773438 -6.820312 -8.015625 -6.59375 -7.046875 Z M -7.640625 -3.640625 L -7.640625 -5.65625 C -7.640625 -6.5 -7.867188 -7.179688 -8.328125 -7.703125 C -8.785156 -8.234375 -9.363281 -8.5 -10.0625 -8.5 C -11.59375 -8.5 -12.359375 -7.5625 -12.359375 -5.6875 L -12.359375 -3.640625 Z M -7.640625 -3.640625 "/>
</g>
<g id="glyph-0-10">
<path d="M -12.46875 -11.046875 L -12.46875 -6.8125 L 0 -6.8125 L 0 -5.21875 L -12.46875 -5.21875 L -12.46875 -0.953125 L -13.75 -0.953125 L -13.75 -11.046875 Z M -12.46875 -11.046875 "/>
</g>
<g id="glyph-0-11">
<path d="M -13.75 -11.5625 L 0 -9.8125 L 0 -8.328125 L -7.75 -5.984375 L 0 -3.65625 L 0 -2.140625 L -13.75 -0.421875 L -13.75 -2 L -2.578125 -3.15625 L -9.34375 -5.1875 L -9.34375 -6.78125 L -2.546875 -8.828125 L -13.75 -10 Z M -13.75 -11.5625 "/>
</g>
<g id="glyph-0-12">
<path d="M 0 -11.765625 L 0 -9.734375 L -6.75 -5.09375 L -5.171875 -3.640625 L 0 -3.640625 L 0 -2.03125 L -13.75 -2.03125 L -13.75 -3.640625 L -7.171875 -3.640625 L -13.75 -9.734375 L -13.75 -11.578125 L -7.953125 -6.21875 Z M 0 -11.765625 "/>
</g>
</g>
<clipPath id="clip-0">
<path clip-rule="nonzero" d="M 0.457031 0 L 841.324219 0 L 841.324219 594.554688 L 0.457031 594.554688 Z M 0.457031 0 "/>
</clipPath>
<clipPath id="clip-1">
<path clip-rule="nonzero" d="M 0.457031 0 L 724 0 L 724 594.066406 L 0.457031 594.066406 Z M 0.457031 0 "/>
</clipPath>
</defs>
<g clip-path="url(#clip-0)">
<path fill-rule="nonzero" fill="rgb(0%, 0%, 100%)" fill-opacity="1" d="M 0.457031 594.554688 L 841.324219 594.554688 L 841.324219 0 L 0.457031 0 Z M 0.457031 594.554688 "/>
</g>
<g fill="rgb(100%, 100%, 100%)" fill-opacity="1">
<use xlink:href="#glyph-0-0" x="833.550172" y="257.91691"/>
<use xlink:href="#glyph-0-1" x="833.550172" y="245.931488"/>
<use xlink:href="#glyph-0-1" x="833.550172" y="233.946065"/>
<use xlink:href="#glyph-0-2" x="833.550172" y="221.960642"/>
<use xlink:href="#glyph-0-3" x="833.550172" y="209.975219"/>
<use xlink:href="#glyph-0-4" x="833.550172" y="197.989796"/>
<use xlink:href="#glyph-0-5" x="833.550172" y="186.004374"/>
<use xlink:href="#glyph-0-6" x="833.550172" y="174.018951"/>
<use xlink:href="#glyph-0-7" x="833.550172" y="162.033528"/>
<use xlink:href="#glyph-0-8" x="833.550172" y="150.048105"/>
<use xlink:href="#glyph-0-3" x="833.550172" y="138.062682"/>
<use xlink:href="#glyph-0-4" x="833.550172" y="126.077259"/>
<use xlink:href="#glyph-0-0" x="833.550172" y="114.091837"/>
<use xlink:href="#glyph-0-6" x="833.550172" y="102.106414"/>
<use xlink:href="#glyph-0-7" x="833.550172" y="90.120991"/>
<use xlink:href="#glyph-0-9" x="833.550172" y="78.135568"/>
<use xlink:href="#glyph-0-10" x="833.550172" y="66.150145"/>
<use xlink:href="#glyph-0-11" x="833.550172" y="54.164723"/>
<use xlink:href="#glyph-0-1" x="833.550172" y="42.1793"/>
<use xlink:href="#glyph-0-9" x="833.550172" y="30.193877"/>
<use xlink:href="#glyph-0-12" x="833.550172" y="18.208454"/>
</g>
<g clip-path="url(#clip-1)">
<path fill="none" stroke-width="2.5" stroke-linecap="butt" stroke-linejoin="miter" stroke="rgb(100%, 100%, 100%)" stroke-opacity="1" stroke-miterlimit="4" d="M -0.00169113 0.00104603 C -0.00169113 47.425844 6.193334 90.517252 18.583385 129.255716 C 30.961703 167.982448 48.350014 201.049961 70.760049 228.458255 C 93.146618 255.854817 119.772713 277.08373 150.595311 292.101974 C 181.433554 307.120217 215.545304 314.625428 252.965761 314.625428 C 289.858233 314.625428 323.848742 307.120217 354.945111 292.101974 C 386.033657 277.08373 412.659752 255.854817 434.792106 228.458255 C 456.932283 201.049961 474.179797 167.982448 486.569848 129.255716 C 498.948166 90.517252 505.143191 47.425844 505.143191 0.00104603 C 505.143191 -47.427662 498.948166 -90.51516 486.569848 -129.257535 C 474.179797 -167.980356 456.932283 -201.188665 434.792106 -228.858996 C 412.659752 -256.529328 386.033657 -277.867749 354.945111 -292.885993 C 323.848742 -307.904237 289.858233 -315.42118 252.965761 -315.42118 C 215.545304 -315.42118 181.433554 -307.904237 150.595311 -292.885993 C 119.772713 -277.867749 93.146618 -256.529328 70.760049 -228.858996 C 48.350014 -201.188665 30.961703 -167.980356 18.583385 -129.257535 C 6.193334 -90.51516 -0.00169113 -47.427662 -0.00169113 0.00104603 Z M 153.360389 0.00104603 C 153.360389 -26.363011 155.730456 -50.329625 160.478411 -71.930083 C 165.226366 -93.557919 171.945466 -112.252503 180.631799 -128.056858 C 189.333776 -143.876857 199.729216 -156.126112 211.868963 -164.828089 C 223.985244 -173.514422 237.681569 -177.867366 252.965761 -177.867366 C 267.721968 -177.867366 281.297052 -173.514422 293.683192 -164.828089 C 306.06151 -156.126112 316.468684 -143.876857 324.908624 -128.056858 C 333.33292 -112.252503 339.926867 -93.557919 344.678733 -71.930083 C 349.411045 -50.329625 351.781111 -26.363011 351.781111 0.00104603 C 351.781111 25.813652 349.411045 49.670758 344.678733 71.544986 C 339.926867 93.407482 333.33292 112.11771 324.908624 127.671761 C 316.468684 143.214079 306.06151 155.342093 293.683192 164.032337 C 281.297052 172.730403 267.721968 177.083347 252.965761 177.083347 C 237.681569 177.083347 223.985244 172.730403 211.868963 164.032337 C 199.729216 155.342093 189.333776 143.214079 180.631799 127.671761 C 171.945466 112.11771 165.226366 93.407482 160.478411 71.544986 C 155.730456 49.670758 153.360389 25.813652 153.360389 0.00104603 Z M 748.775084 -240.470758 C 748.775084 -232.711332 750.226066 -225.370384 753.139761 -218.412713 C 756.045635 -211.474597 760.085699 -205.412546 765.263864 -200.238291 C 770.418564 -195.071859 776.480615 -191.031795 783.434375 -188.125922 C 790.384223 -185.212226 797.736905 -183.761244 805.49242 -183.761244 C 813.240113 -183.761244 820.592795 -185.212226 827.542643 -188.125922 C 834.488581 -191.031795 840.550633 -195.071859 845.724887 -200.238291 C 850.891319 -205.412546 854.931383 -211.474597 857.837257 -218.412713 C 860.750952 -225.370384 862.201934 -232.711332 862.201934 -240.470758 C 862.201934 -248.226273 860.750952 -255.582866 857.837257 -262.528804 C 854.931383 -269.482563 850.891319 -275.536793 845.724887 -280.703225 C 840.550633 -285.877479 834.488581 -289.909721 827.542643 -292.823417 C 820.592795 -295.72538 813.240113 -297.188094 805.49242 -297.188094 C 797.736905 -297.188094 790.384223 -295.72538 783.434375 -292.823417 C 776.480615 -289.909721 770.418564 -285.877479 765.263864 -280.703225 C 760.085699 -275.536793 756.045635 -269.482563 753.139761 -262.528804 C 750.226066 -255.582866 748.775084 -248.226273 748.775084 -240.470758 Z M 645.329109 293.674196 L 477.969557 101.284238 L 481.098357 101.284238 C 495.686391 110.146566 507.685342 115.485082 517.071744 117.319341 C 526.458146 119.141868 534.788578 120.057042 542.098239 120.057042 C 570.765876 120.057042 597.098646 114.581641 621.088725 103.634749 C 645.05925 92.683946 665.920529 77.689169 683.649096 58.662149 C 701.369842 39.623397 715.191319 17.338513 725.101796 -8.200323 C 735.000539 -33.750892 739.959688 -61.123988 739.959688 -90.31961 C 739.959688 -121.599795 734.218339 -150.670265 722.755195 -177.515376 C 711.280318 -204.37613 694.72114 -227.838225 673.093305 -247.90166 C 651.453737 -267.980739 625.253941 -283.753806 594.49783 -295.22086 C 563.726074 -306.680093 529.058962 -312.421443 490.480849 -312.421443 C 451.378661 -312.421443 416.44169 -306.680093 385.685578 -295.22086 C 354.917734 -283.753806 328.717939 -268.113713 307.090103 -248.29276 C 285.446624 -228.487451 268.891357 -205.416457 257.428213 -179.083687 C 245.953336 -152.75874 240.22372 -124.728596 240.22372 -95.0089 C 240.22372 -61.651973 247.650711 -25.541701 262.512514 13.306271 C 277.370407 52.1386 300.171543 90.337346 330.943298 127.879044 L 467.804865 293.674196 Z M 391.94318 -93.4445 C 391.94318 -107.007851 394.543995 -119.644295 399.761271 -131.377298 C 404.966813 -143.10639 412.006615 -153.407966 420.880676 -162.266383 C 429.739093 -171.136533 440.040669 -178.176335 451.769761 -183.381877 C 463.502764 -188.599153 476.135297 -191.203879 489.698649 -191.203879 C 503.250267 -191.203879 515.898444 -188.599153 527.631447 -183.381877 C 539.360539 -178.176335 549.650382 -171.136533 558.520532 -162.266383 C 567.38286 -153.407966 574.418751 -143.10639 579.636026 -131.377298 C 584.841569 -119.644295 587.458028 -107.007851 587.458028 -93.4445 C 587.458028 -79.892881 584.841569 -67.244704 579.636026 -55.515612 C 574.418751 -43.786521 567.38286 -33.496677 558.520532 -24.626527 C 549.650382 -15.764199 539.360539 -8.728308 527.631447 -3.511033 C 515.898444 1.69842 503.250267 4.310969 489.698649 4.310969 C 476.135297 4.310969 463.502764 1.69842 451.769761 -3.511033 C 440.040669 -8.728308 429.739093 -15.764199 420.880676 -24.626527 C 412.006615 -33.496677 404.966813 -43.786521 399.761271 -55.515612 C 394.543995 -67.244704 391.94318 -79.892881 391.94318 -93.4445 Z M 391.94318 -93.4445 " transform="matrix(0.998785, 0, 0, -0.998785, -152.158467, 296.727607)"/>
</g>
</svg>
